HIERARCHY
ROOT Hips
{
	OFFSET 0.00000 0.00000 0.00000
	CHANNELS 6 Xposition Yposition Zposition Zrotation Yrotation Xrotation 
	JOINT LHipJoint
	{
		OFFSET 0 0 0
		CHANNELS 3 Zrotation Yrotation Xrotation
		JOINT LeftHip
		{
			OFFSET 1.30186 -1.90722 0.65024
			CHANNELS 3 Zrotation Yrotation Xrotation
			JOINT LeftKnee
			{
				OFFSET 2.56413 -7.04489 0.00000
				CHANNELS 3 Zrotation Yrotation Xrotation
				JOINT LeftAnkle
				{
					OFFSET 2.79321 -7.67428 0.00000
					CHANNELS 3 Zrotation Yrotation Xrotation
					JOINT LeftToe
					{
						OFFSET 0.15723 -0.43198 2.08537
						CHANNELS 3 Zrotation Yrotation Xrotation
						End Site
						{
							OFFSET 0.00000 -0.00000 1.07411
						}
					}
				}
			}
		}
	}
	JOINT RHipJoint
	{
		OFFSET 0 0 0
		CHANNELS 3 Zrotation Yrotation Xrotation
		JOINT RightHip
		{
			OFFSET -1.28627 -1.90723 0.65024
			CHANNELS 3 Zrotation Yrotation Xrotation
			JOINT RightKnee
			{
				OFFSET -2.56567 -7.04913 0.00000
				CHANNELS 3 Zrotation Yrotation Xrotation
				JOINT RightAnkle
				{
					OFFSET -2.75597 -7.57198 0.00000
					CHANNELS 3 Zrotation Yrotation Xrotation
					JOINT RightToe
					{
						OFFSET -0.17500 -0.48081 2.22901
						CHANNELS 3 Zrotation Yrotation Xrotation
						End Site
						{
							OFFSET -0.00000 -0.00000 1.14762
						}
					}
				}
			}
		}
	}
	JOINT lowerback
	{
		OFFSET 0 0 0
		CHANNELS 3 Zrotation Yrotation Xrotation
		JOINT Chest
		{
			OFFSET -0.04522 2.07467 -0.16566
			CHANNELS 3 Zrotation Yrotation Xrotation
			JOINT Chest2
			{
				OFFSET -0.01178 2.08825 -0.05393
				CHANNELS 3 Zrotation Yrotation Xrotation
				JOINT lowerneck
				{
					OFFSET 0 0 0
					CHANNELS 3 Zrotation Yrotation Xrotation
					JOINT Neck
					{
						OFFSET -0.05182 1.80489 0.16014
						CHANNELS 3 Zrotation Yrotation Xrotation
						JOINT Head
						{
							OFFSET 0.14739 1.78840 -0.33342
							CHANNELS 3 Zrotation Yrotation Xrotation
							End Site
							{
								OFFSET 0.04364 1.83899 -0.13460
							}
						}
					}
				}
				JOINT LeftCollar
				{
					OFFSET 0 0 0
					CHANNELS 3 Zrotation Yrotation Xrotation
					JOINT LeftShoulder
					{
						OFFSET 3.01264 1.29090 -0.06579
CHANNELS 3 Zrotation Xrotation Yrotation
						JOINT LeftElbow
						{
OFFSET 0 -5.556800 0.000000
CHANNELS 3 Zrotation Xrotation Yrotation
							JOINT LeftWrist
							{
OFFSET 0 -3.639790 -0.000000
CHANNELS 3 Zrotation Xrotation Yrotation
								JOINT lhand
								{
									OFFSET 0 0 0
CHANNELS 3 Zrotation Xrotation Yrotation
									JOINT LFingers
									{
OFFSET 0 -0.569420 -0.000000
CHANNELS 3 Zrotation Xrotation Yrotation
										End Site
										{
OFFSET 0 -0.459080 -0.000000
										}
									}
								}
								JOINT LThumb
								{
OFFSET 0 0.000000 0.000000
CHANNELS 3 Zrotation Xrotation Yrotation
									End Site
									{
OFFSET 0 -0.466090 0.466090
									}
								}
							}
						}
					}
				}
				JOINT RightCollar
				{
					OFFSET 0 0 0
					CHANNELS 3 Zrotation Yrotation Xrotation
					JOINT RightShoulder
					{
						OFFSET -3.15796 1.37283 -0.36748
CHANNELS 3 Zrotation Xrotation Yrotation
						JOINT RightElbow
						{
OFFSET 0 -5.343390 0.000000
CHANNELS 3 Zrotation Xrotation Yrotation
							JOINT RightWrist
							{
OFFSET 0 -3.651010 -0.000000
CHANNELS 3 Zrotation Xrotation Yrotation
								JOINT rhand
								{
									OFFSET 0 0 0
CHANNELS 3 Zrotation Xrotation Yrotation
									JOINT RFingers
									{
OFFSET 0 -0.694250 -0.000000
CHANNELS 3 Zrotation Xrotation Yrotation
										End Site
										{
OFFSET 0 -0.559720 -0.000000
										}
									}
								}
								JOINT RThumb
								{
OFFSET 0 0.000000 0.000000
CHANNELS 3 Zrotation Xrotation Yrotation
									End Site
									{
OFFSET 0 -0.568270 0.568270
									}
								}
							}
						}
					}
				}
			}
		}
	}
}
MOTION
Frames: 7
Frame Time: 0.008333333333333333
2.115800 18.046100 -17.762700 4.636900 -7.993800 2.674600 0.000000 0.000000 0.000000 -24.335900 -10.125600 -17.794700 1.911800 8.679800 24.798700 0.247800 -2.349200 -8.882900 0.183000 -2.755600 -7.599100 0.000000 0.000000 0.000000 15.678900 8.574500 -3.972500 -8.080800 -16.178300 52.853000 -0.639100 7.851400 19.947500 -0.000400 -0.126700 0.348100 -3.761600 1.035800 3.429600 -1.676500 1.255500 1.734600 0.343200 0.611300 -0.183900 -3.236400 -0.642600 -15.051300 0.775100 -0.286600 12.262300 0.745500 -0.229100 6.196400 0.000000 -0.000000 0.000000 35.590600 15.928900 -40.760200 82.353800 -59.777900 53.383100 25.973800 -5.092600 -5.114600 0.000000 0.000000 0.000000 -7.125000 0.000000 0.000000 -0.590400 35.665000 -0.135400 0.000000 -0.000000 0.000000 -4.212700 11.243000 7.307000 -17.114100 -27.008000 -4.139000 -16.573600 -5.657400 -30.969200 0.000000 0.000000 0.000000 7.125000 0.000000 -0.000000 8.442300 -1.765200 8.793300
2.116105 18.049678 -17.697954 4.729508 -7.898185 2.610121 0.000000 0.000000 0.000000 -24.530138 -10.032040 -17.446267 1.894329 8.642155 24.682302 0.250198 -2.486114 -8.916548 0.173027 -2.677836 -7.383166 0.000000 0.000000 0.000000 15.532432 8.573282 -4.546839 -8.322693 -16.347035 53.709694 -0.591102 7.735497 19.337495 -0.000438 -0.134160 0.368616 -3.896192 0.945818 3.430171 -1.659371 1.132365 1.752528 0.440566 0.548419 -0.163803 -3.236095 -0.616603 -15.028805 0.637501 -0.230494 12.386653 0.707094 -0.214636 6.231342 0.000000 0.000000 0.000000 35.519117 16.060866 -40.629376 82.250724 -59.771772 53.294032 26.152279 -5.036266 -4.964668 0.000000 0.000000 0.000000 -7.125000 0.000000 0.000000 -0.435368 35.506694 -0.100572 0.000000 0.000000 0.000000 -4.308353 11.383797 7.474669 -17.002270 -26.860390 -4.088566 -16.318651 -5.247381 -30.982142 0.000000 0.000000 0.000000 7.125000 0.000000 0.000000 8.589187 -1.734445 8.945249
2.116409 18.053256 -17.633208 4.822117 -7.802569 2.545641 0.000000 0.000000 0.000000 -24.724375 -9.938480 -17.097835 1.876858 8.604511 24.565904 0.252596 -2.623028 -8.950196 0.163055 -2.600073 -7.167232 0.000000 0.000000 0.000000 15.385964 8.572064 -5.121178 -8.564586 -16.515770 54.566388 -0.543104 7.619594 18.727491 -0.000476 -0.141621 0.389132 -4.030785 0.855836 3.430742 -1.642243 1.009230 1.770456 0.537933 0.485538 -0.143705 -3.235791 -0.590605 -15.006309 0.499901 -0.174389 12.511007 0.668688 -0.200172 6.266284 0.000000 0.000000 0.000000 35.447634 16.192832 -40.498552 82.147648 -59.765644 53.204963 26.330759 -4.979932 -4.814736 0.000000 0.000000 0.000000 -7.125000 0.000000 0.000000 -0.280335 35.348388 -0.065744 0.000000 0.000000 0.000000 -4.404007 11.524593 7.642339 -16.890439 -26.712780 -4.038132 -16.063702 -4.837361 -30.995083 0.000000 0.000000 0.000000 7.125000 0.000000 0.000000 8.736074 -1.703689 9.097198
2.116302 18.056806 -17.569683 4.930249 -7.679340 2.485915 0.000000 0.000000 0.000000 -24.929696 -9.844608 -16.775711 1.863246 8.575139 24.475105 0.251943 -2.783626 -8.930545 0.179959 -2.705222 -7.460773 0.000000 0.000000 0.000000 15.221162 8.540975 -5.708942 -8.800959 -16.675991 55.396375 -0.489302 7.559359 18.074319 -0.002061 -0.027343 0.075112 -4.179581 0.790630 3.453123 -1.647620 0.916561 1.773271 0.618611 0.438551 -0.151988 -3.154914 -0.590576 -14.994456 0.337540 -0.166020 12.676753 0.604555 -0.207376 6.316950 0.000000 0.000000 0.000000 35.440121 16.285363 -40.457836 82.051114 -59.759842 53.121571 26.492692 -4.916319 -4.668934 0.000000 0.000000 0.000000 -7.125000 0.000000 0.000000 -0.139834 35.193488 -0.033371 0.000000 0.000000 0.000000 -4.411212 11.716660 7.696287 -16.801952 -26.595864 -3.998298 -15.749892 -4.467415 -31.011941 0.000000 0.000000 0.000000 7.125000 0.000000 0.000000 8.916833 -1.667556 9.284538
2.115503 18.060307 -17.508210 5.064499 -7.509653 2.434187 0.000000 0.000000 0.000000 -25.153661 -9.750211 -16.497848 1.856129 8.559685 24.427374 0.246157 -2.984068 -8.821227 0.242078 -3.118096 -8.611431 0.000000 0.000000 0.000000 15.025516 8.459634 -6.319289 -9.028046 -16.821889 56.181434 -0.425736 7.592779 17.348525 -0.006248 0.291743 -0.801718 -4.352275 0.767107 3.512198 -1.690860 0.875148 1.750661 0.671215 0.418301 -0.208018 -2.938485 -0.634235 -15.000508 0.133520 -0.237960 12.912137 0.497140 -0.251035 6.394066 0.000000 0.000000 0.000000 35.540227 16.311551 -40.568715 81.965586 -59.754589 53.047728 26.626790 -4.840458 -4.530078 0.000000 0.000000 0.000000 -7.125000 0.000000 0.000000 -0.023778 35.044318 -0.005128 0.000000 0.000000 0.000000 -4.269616 11.994979 7.558916 -16.752736 -26.530585 -3.976297 -15.337056 -4.164887 -31.035388 0.000000 0.000000 0.000000 7.125000 0.000000 0.000000 9.154577 -1.622375 9.531418
2.114703 18.063809 -17.446738 5.198749 -7.339966 2.382459 0.000000 0.000000 0.000000 -25.377626 -9.655813 -16.219984 1.849011 8.544231 24.379642 0.240372 -3.184510 -8.711909 0.304198 -3.530971 -9.762089 0.000000 0.000000 0.000000 14.829870 8.378292 -6.929636 -9.255132 -16.967786 56.966492 -0.362170 7.626198 16.622732 -0.010435 0.610829 -1.678547 -4.524969 0.743584 3.571272 -1.734100 0.833735 1.728052 0.723818 0.398051 -0.264047 -2.722056 -0.677894 -15.006560 -0.070500 -0.309899 13.147522 0.389725 -0.294694 6.471183 0.000000 0.000000 0.000000 35.640334 16.337738 -40.679594 81.880057 -59.749336 52.973885 26.760887 -4.764598 -4.391223 0.000000 0.000000 0.000000 -7.125000 0.000000 0.000000 0.092277 34.895147 0.023115 0.000000 0.000000 0.000000 -4.128020 12.273299 7.421545 -16.703520 -26.465306 -3.954297 -14.924220 -3.862359 -31.058835 0.000000 0.000000 0.000000 7.125000 0.000000 0.000000 9.392321 -1.577193 9.778297
2.115862 18.065892 -17.384840 5.239484 -7.181035 2.387151 0.000000 0.000000 0.000000 -25.497321 -9.634922 -15.968146 1.842574 8.530196 24.336366 0.238361 -3.320614 -8.676409 0.356412 -3.823284 -10.581545 0.000000 0.000000 0.000000 14.709347 8.352860 -7.530845 -9.469703 -17.098159 57.697344 -0.320543 7.442166 15.902586 -0.032417 1.029843 -2.832229 -4.592740 0.677916 3.606677 -1.722509 0.742230 1.730020 0.776734 0.352174 -0.278357 -2.671399 -0.677165 -15.176113 -0.163069 -0.297549 13.351176 0.352751 -0.296434 6.565299 0.000000 0.000000 0.000000 35.636256 16.357852 -40.620870 81.884694 -59.749646 52.977890 26.865696 -4.617814 -4.471069 0.000000 0.000000 0.000000 -7.125000 0.000000 0.000000 0.177057 34.989312 0.043071 0.000000 0.000000 0.000000 -4.087260 12.445362 7.374084 -16.660037 -26.407435 -3.934964 -14.530966 -3.542859 -30.986356 0.000000 0.000000 0.000000 7.125000 0.000000 0.000000 9.610085 -1.441904 9.988509
